<?xml version="1.0" encoding="utf-8"?>
<!-- Generator: Adobe Illustrator 15.0.2, SVG Export Plug-In . SVG Version: 6.00 Build 0)  -->
<!DOCTYPE svg PUBLIC "-//W3C//DTD SVG 1.1//EN" "http://www.w3.org/Graphics/SVG/1.1/DTD/svg11.dtd">
<svg version="1.1" id="Layer_1" xmlns="http://www.w3.org/2000/svg" xmlns:xlink="http://www.w3.org/1999/xlink" x="0px" y="0px"
	 width="967px" height="838.067px" viewBox="-220.5 -191.1 967 838.067" enable-background="new -220.5 -191.1 967 838.067"
	 xml:space="preserve">
<path d="M558.684-13.569c-70.058-69.385-163.4-107.615-262.816-107.615c-99.322,0-192.338,38.23-261.982,107.646
	C-35.79,55.913-74.149,148.835-74.149,248.057c0,99.386,38.359,192.725,108.003,262.822
	c69.771,70.218,162.823,108.869,262.013,108.869c99.288,0,192.626-38.651,262.816-108.869
	c70.224-70.193,108.869-163.535,108.869-262.822C667.553,148.931,628.873,56.009,558.684-13.569z M296.125,492.932
	c-67.298,0-131.057-28.455-176.453-78.456l410.4-217.092c0.898,2.347,1.446,4.276,1.895,6.558
	c3.344,16.883,5.049,34.438,5.049,52.12C537.016,388.885,431.193,492.932,296.125,492.932z M295.479,9.419
	c65.176,0.224,129.996,28.52,179.382,77.972L61.891,305c-3.214-17.203-6.143-35.044-5.563-54.568v-0.252
	C56.329,117.419,163.591,9.419,295.479,9.419z"/>
<path fill="#FF0000" d="M295.879-113.147c-200.834,0-361.998,160.381-361.998,361.213c0,200.838,161.161,363.644,361.998,363.644
	c200.829,0,363.641-162.806,363.641-363.644C659.52,47.231,496.708-113.147,295.879-113.147z M296.135,500.974
	c-77.592,0-146.468-35.97-191.796-92.015c-21.62-26.73-38.98-57.383-48.275-91.522c-3.951-21.099-8.507-42.671-7.768-67.257
	c0-137.621,109.552-248.781,247.171-248.781C374.373,1.666,442.166,39.98,488.115,89.55c22.163,27.207,36.447,60.565,45.951,96.86
	c3.22,6.966,4.76,10.788,5.787,15.963c3.413,17.186,5.211,35.129,5.211,53.688C545.061,393.688,433.751,500.974,296.135,500.974z"/>
<path fill="#FFFFFF" d="M302.836,496.955c-89.256,1.422-159.608-48.917-156.369-51.081c9.751-6.502,26.98-18.257,34.455-26.352
	c4.81-5.184,11.859-11.407,15.809-16.879c2.475-3.432,8.446-10.794,10.18-12.859c-1.51-3.739-32.375-23.828-32.375-23.828
	c-56.074-38.651-62.144-83.532-67.166-93.271l-3.784-11.05c-2.992,0.394-23.805,4.057-27.161,5.221
	c-8.629,3.016-16.683,9.301-30.544,17.481c-30.545,19.292-60.688,21.102-60.688,21.102s8.169,23.663,8.136,25.921
	c-0.021,2.697,0.029,10.306-12.511,10.379c-13.073,0-24.57-11.142-33.005-22.431c-6.079-8.132-12.632-15.949-21.1-20.698
	c-6.253,2.877-26.753-5.27-40.19-12.862c-8.736-4.938-10.439-6.797-12.261-8.037c-3.82-2.609-15.046,0.942-17.247,1.486
	c-9.846,2.43-16.344,4.021-21.665,4.021c-5.556,0-9.735-4.448-9.688-6.612c0.091-3.781,1.077-10.015,8.384-16.798
	c3.561-3.305,9.296-6.098,11.68-9.024c0.066-0.172,4.881-9.67,4.979-9.893c-0.021,0,0.704-2.8-0.359-3.575
	c-3.269-2.376-15.683-1.547-30.924-1.547c-2.15,0-4.22,0.028-6.15,0.05c-1.673,0.019-3.236,0.038-4.626,0.038
	c-7.897,0-6.558-3.922-7.132-6.174c-1.447-5.621,3.707-13.093,8.038-15.475c2.174-1.224,8.382-5.113,16.075-9.647
	c7.591-4.473,19.024-10.688,21.102-11.857c0.735-2.172-7.476-10.506-14.588-14.815c-2.628-1.594-6.405-3.234-10.393-4.968
	c-10.117-4.405-18.324-8.629-18.024-15.181c0.262-5.687,3.318-8.844,16.613-8.844l8.775,0.544
	c24.075,0.362,83.563,39.076,86.678,41.121c10.491,6.905,45.232,24.348,45.232,24.348s8.522-5.321,24.764-16.979
	c5.973-4.283,19.886-12.339,24.113-15.876c8.903-7.397,34.312-28.129,43.406-41.599C64.558,119.96,85.96,108.554,95.1,104.283
	c-0.353-0.845-22.062-38.653-19.291-60.084c3.767-29.271,17.236-45.38,35.57-63.502c5.265-5.196,13.222-14.512,18.287-20.095
	c10.084-11.157,18.547-27.299,24.717-40.792c7.773-16.981,15.635-32.428,31.15-45.215c13.41-10.873,22.335-13.859,35.771-15.672
	c3.127-0.394,17.763-2.408,23.711-3.416c-1.02-0.933,3.017-9.244,11.252-12.862c24.918-13.666,44.382-15.876,45.016-15.876
	c17.834,0,23.353,4.788,27.332,14.469c2.044,4.997,5.109,16.329,9.643,21.703c5.882,6.982,8.545,9.946,12.459,9.648
	c2.613-0.202,6.152-4.217,7.033-4.421c6.026-1.406,17.107-4.267,18.485-2.011c2.859,4.687-2.573,21.583-11.453,25.523
	c-6.562,2.923-20.434,2.411-30.547,2.411c0,0-14.229,5.577-16.607,9.243c-1.411,2.159,4,11.933,4.42,23.644
	c0.227,6.821-1.742,15.262-2.481,20.062c-0.775,5.02-1.853,7.061-2.013,17.583c-0.283,17.627,16.725,52.603,23.511,67.119
	c7.521,16.048,5.932,31.951,5.932,31.951s48.814,0.726,72.378,13.292c19.304,10.327,29.511,14.689,37.849,24.489
	c8.331,9.797,26.543,61.104,26.543,61.104l41.997,25.314c2.114,1.098,10.437,10.307,12.577,18.074
	c8.34-0.433,15.376-4.846,20.897-2.4c7.583,3.359,13.653,5.84,14.473,5.619c6.294-1.703,22.658-7.469,37.512-14.736
	c9.585-4.688,21.041-9.702,24.916-11.253c10.636-4.254,30.929-10.179,40.605-10.179c0.431,0,12.179,4.314,12.179,12.59
	c0,6.502-8.676,9.737-25.45,21.168c-7.726,5.26-18.208,11.951-22.779,16.343c-12.828,12.37-15.817,17.421-15.128,23.918
	c0.406,3.607,9.492,4.842,15.667,7.162c4.312,1.616,12.218,3.629,19.824,5.63c10.966,2.874,25.53,7.407,31.887,10.446
	c3.591,1.717,18.774,11.819,17.946,20.628c-0.924,10.63-9.009,13.399-18.485,13.399c-9.415,0-21.517-4.449-29.205-6.432
	c-5.863-1.512-17.418-1.343-17.418-1.343c-7.691,0.154-16.335-1.228-14.259,4.923c0.257,0.759,0,0,0.408,0.673
	c4.337,7.243,16.663,18.449,21.924,23.245c0.924,0.842,1.671,1.52,2.179,1.994c2.695,2.535,7.236,12.496,5.291,17.401
	c-0.803,2.044-7.018,6.433-13.666,6.433c-9.452,0-32.237-17.513-35.906-20.363c-10.597-8.279-23.471-21.116-37.242-21.433
	c-0.431-0.013-41.796,10.716-41.796,10.716c-0.678,2.197-12.04,40.575-35.91,75.29C464.403,442.563,392.089,495.526,302.836,496.955
	z"/>
<path d="M528.601,319.309c-27.49,101.156-119.764,173.623-232.476,173.623c-67.298,0-131.057-28.455-176.453-78.456L533.094,195.83
	l0.357-11.675c-9.501-35.418-23.638-67.966-45.34-94.607C448.617,46.94,392.984,12.65,328.027,3.687c-0.01,0-0.021,0-0.031-0.005
	l4.094,8.793c52.382,8.553,102.665,34.758,142.771,74.917L61.891,305c-1.689-9.05-3.303-18.279-4.365-27.833
	c0-0.013-0.004-0.03-0.004-0.043l-7.544,4.675c0.003,0.027,0.003,0.046,0.006,0.07c1.56,12.274,3.908,23.988,6.077,35.563
	c9.295,34.139,26.654,64.791,48.274,91.521c45.33,56.044,114.208,92.015,191.797,92.015c115.655,0,212.703-75.788,240.742-181.666
	h-8.273V319.309z"/>
<path d="M220.31,73.875c0.018,9.314-4.464,21.208-12.596,21.368c-5.827,0.006-12.642-9.103-12.19-20.865
	c0.457-11.758,5.56-20.866,12.459-20.866C215.553,53.51,220.283,63.487,220.31,73.875z"/>
<path d="M202.171,127.746c-4.473-0.15-8.242-4.43-11.255-5.175c-0.502,0.4,8.036,11.908,18.239,11.908
	c11.654,0,16.628-11.959,14.368-14.822c-1.231-1.561-1.836,2.47-5.126,5.125c-2.36,1.903-6.177,2.914-10.919,3.164
	C205.385,128.077,204.232,127.897,202.171,127.746z"/>
<path d="M204.683,9.082c-0.603,0.657,5.321,12.761,14.166,12.761c9.094,0,13.768-11.052,11.302-14.369
	c-2.808-2.256-1.642,6.32-12.156,7.184C210.059,15.314,205.586,8.178,204.683,9.082z"/>
<path d="M209.775-66.375c-1.203-3.301-4.424-5.632-7.617-5.579c-5.897,0.103-12.084,5.417-12.023,14.869
	c0,5.93,2.8,12.818,7.076,13.244c7.205,0.716,8.69-2.587,8.91-7.265c0.105-2.19-0.721-4.186-1.465-5.979
	c-0.832-1.994-2.218-4.803-1.894-5.897c0.234-0.787,1.32-0.599,2.749-0.289c2.107,0.46,4.771,2.849,5.159,2.701
	C211.048-60.712,210.979-63.076,209.775-66.375z"/>
<path d="M265.421-56.36c-0.621-1.63-2.222-6.772-6.531-7.035c-4.972-0.303-11,4.872-12.306,14.369
	c-1.311,9.524,0.656,11.705,6.08,12.761c4.367,0.851,7.054-0.397,7.084-4.271c0.032-3.874,0.225-8.947,0.705-9.745
	c0.475-0.802,1.641-1.145,2.414-0.956c0.769,0.189,1.452,1.63,3.012,1.529C267.44-49.807,266.046-54.733,265.421-56.36z"/>
<path d="M189.51-82.503c6.984,2.057,4.371-7.537,10.802-12.812c2.911-3.114,7.135-4.873,7.687-7.032
	c0.551-2.162-7.84,1.859-10.851,4.771C193.13-94.007,184.638-83.556,189.51-82.503z"/>
<path d="M258.343-97.625c-2.217,1.961-0.465,3.643,1.554,4.822c1.818,0.552,5.291,2.799,8.391,6.282
	c4.712,4.935,7.082,9.497,8.238,8.992c0.93-0.351-1.81-6.38-4.32-11.302C269.54-94.108,262.91-101.29,258.343-97.625z"/>
<path d="M-175.876,145.481c-12.985,0-23.015,2.667-23.411,11.053c-0.4,9.243,13.722,16.068,24.384,20.496
	c4,1.661,15.505,9.789,17.818,13.53c-8.679,5.42-36.677,21.937-41.802,26.66c-5.121,4.725-4.755,10.387-2.912,14.668
	c1.84,4.287,5.846,8.209,15.862,8.209c1.41,0,8.648-0.06,10.798-0.06c18.279,0,19.22,0.33,20.798,0.917
	c-0.017,4.65-0.943,7.292-2.947,9.318c-1.781,1.8-5.295,3.588-7.334,5.625c-8.45,8.437-13.341,14.469-13.464,19.695
	c-0.082,3.598,3.056,6.909,5.226,8.541c2.168,1.625,7.201,2.844,13.504,2.844c7.354,0,16.893-3.756,31.863-7.27
	c1.444,0.585,5.208,2.299,14.101,7.338c16.071,9.091,28.029,17.161,38.356,17.161c0.977,0,3.485-0.723,4.291-1.388
	c11.068,9.947,17.903,21.584,20.832,24.515c2.796,3.567,9.612,9.37,12.995,11.924c8.689,7.572,16.974,6.313,18.958,6.094
	c1.982-0.216,8.021-0.81,11.254-3.416c2.556-2.057,3.671-5.707,3.817-8.843c0.268-5.556-3.876-12.642-6.298-18.421
	c-1.141-2.717-1.672-5.423-1.672-5.423s8.018-1.133,15.941-3.35c7.926-2.213,24.848-6.463,45.213-20.634
	c26.626-18.516,42.309-19.599,49.75-20.375c1.57,4.37,7.681,21.343,8.541,23.065c0.989,1.981,7.646-5.563,7.646-5.563l-8.53-19.104
	c3.937-0.419,6.85-0.518,10.869-0.268c3.967-1.004,4.26-3.198,3.265-3.768c-1.973-1.123-12.163-1.496-23.449-0.213
	c-6.375,0.723-13.496,2.017-18.701,3.882c-8.384,2.924-17.437,7.663-31.953,16.226c-8.547,5.042-17.794,10.156-26.71,13.819
	c-15.624,6.42-29.491,9.775-32.219,9.775c-4.287,0,2.545-7.43,2.545-7.43s0.735-3.483,0.198-4.82
	c-0.448-0.368-1.115-0.745-1.94-0.406c-1.446,0.598-3.328,2.606-4.974,5.042c-1.648,2.432-3.461,5.361-3.266,9.897
	c0.199,5.528,3.434,11.463,5.829,17.185c1.771,4.235,2.932,8.138,2.91,9.803c-0.024,1.937,0.045,3.232-2.057,4.561
	c-1.509,0.955-4.292,2.254-8.288,2.277c-4.016,0.025-7.997-0.978-11.756-3.834c-7.037-5.355-13.548-15.192-19.793-22.758
	c-7.52-9.107-15.516-15.25-16.329-15.927c-1.847-1.54-6.417-5.465-9.849-7.538c-1.115-0.675-2.244-1.317-3.115-1.509
	c-0.885-0.196-1.5,0.063-1.606,0.15c-0.656,0.555-0.198,1.382,0.051,1.859c0.55,1.056,1.966,2.752,2.309,3.768
	c0.659,1.941-0.098,2.822-1.055,2.663c-0.95-0.16-6.799-1.773-14.167-5.126c-3.952-1.793-8.087-4.268-12.711-6.881
	c-4.078-2.521-7.531-5.015-9.846-6.78c-3.73-2.857-5.516-4.494-7.435-5.831c-3.114-2.163-7.637-4.419-10.902-4.771
	c-1.478-0.163-2.033,0.366-2.613,0.899c-0.698,0.649-1.05,1.542-0.198,2.312c0.537,0.56,2.459,1.511,4.12,2.712
	c1.41,1.019,2.49,2.17,2.427,2.595c-0.168,1.172-3.543,0.987-8.056,1.976c-6.599,1.449-15.446,3.468-19.089,3.468
	c-8.368,0-11.707-1.806-11.605-5.429c0.066-2.832,2.912-6.883,8.844-12.908c1.348-1.449,3.12-2.865,5.023-3.97
	c3.164-1.306,5.515-2.783,6.433-4.876c1.551-2.1,1.151-4.888,1.907-6.734c0.336-0.59,1.232-1.569,2.865-2.006
	c4.972-1.005,11.254,7.534,14.772,8.69c2.229,0.825,2.761-1.557,0.602-4.772c-1.864-3.192-4.574-7.938-10.451-11.407
	c-3.08-1.883-6.651-3.931-12.059-4.722c-4.199-0.612-8.891-0.803-14.869-0.15c-4.029,0-14.625,1.207-17.634,1.207
	c-7.738,0.248-10.599-3.769-10.099-8.19c1.154-3.515,5.803-6.483,7.839-7.938c4.219-3.016,13.119-8.21,22.153-13.463
	c5.651-3.288,9.193-6.333,13.615-6.18c3.367-0.051,5.046,3.906,7.637,7.182c2.613,3.566,5.306,6.518,5.727,7.232l2.162-0.198
	c-0.956-2.011-3.316-10.447-8.339-17.986c-5.714-7.601-14.625-13.973-15.725-14.869c-2.211-1.811-8.19-6.081-15.02-9.095
	c-9.698-4.57-17.026-8.901-16.831-13.01c0.138-2.893,5.711-4.988,14.772-4.974c9.061,0.018,23.26,3.099,36.926,10.063
	c18.219,10.049,45.696,26.664,48.936,28.41c5.422,2.923,14.337,8.11,21.533,12.115c7.224,4.018,15.349,9.007,28.299,14.972
	c7.317,3.371,23.662,6.177,23.912,3.314c0.151-1.405-2.21-1.657-5.226-3.314c-3.466-1.612-7.636-3.615-7.636-3.615
	s37.24-24.357,49.131-34.266c12.995-9.376,29.941-23.499,38.853-36.704c1.427-2.626,4.049-6.003,5.695-8.309
	c10.315-15.475,26.618-23.818,32.152-25.387c4.568,6.37,11.725,15.008,15.81,19.089c5.024,4.354,6.279,2.215,6.631,1.875
	c-10.842-13.687-23.937-32.214-31.35-52.381c-5.09-12.727-6.858-25.321-5.493-35.904C82.285,24.286,89.236,11.738,99.33-0.24
	c11.098-13.172,25.762-25.505,36.708-39.255c6.628-8.222,11.317-16.663,15.678-25.923c2-4.255,3.999-9.257,5.963-13.464
	c7.768-16.638,16.679-32.287,31.28-45.012c11.254-8.273,28.283-13.751,44.157-15.809c2.296-0.285,10.524-0.938,18.189-0.703
	c6.987,0.213,13.448,1.175,14.115,1.157c1.4-0.045,2.21-1.861-1.403-3.62c-1.649-0.248-4.672-0.954-7.639-1.658
	c-4.018-0.301-6.883-1.907-6.981-3.314c-0.108-1.735,8.021-6.45,18.136-11.353c11.12-5.396,24.776-10.94,35.622-11.205
	c15.26-0.47,20.146,5.878,23.663,14.769c2.951,6.908,5.188,14.841,11.504,22.333c6.486,8.192,15.686,12.806,19.841,14.345
	c0.923,0.163,1.716-0.165,2.11-0.457c0.688-0.511,0.752-1.074,0.459-1.687c-0.902-1.847-5.161-4.099-5.716-6.417
	c-0.181-0.762,13.061-5.433,15.254-5.559c1.761-0.102,4.27,1.708,4.309,4.821c0.025,2.61-1.142,6.03-3.25,9.346
	c-1.634,2.341-3.97,4.96-7.202,6.397c-3.595,1.882-7.885,1.96-13.798,1.94c-2.573-0.006-6.42-0.027-8.997-0.049
	c-5.973-0.051-10.747,0.702-12.059,1.197c-5.269,1.113-11.264,7.293-13.16,8.901c0,0-2.958-3.739-6.377-7.337
	c-3.614-3.801-7.731-7.344-8.44-7.385c-1.495-0.085-1.735,1.999-1.341,2.865c0.396,0.866,2.994,6.231,4.623,8.105
	c1.289,1.498,3.545,4.782,4.751,6.717c1.217,1.931,4.593,7.96,6.033,11.756c1.724,4.55,2.887,9.088,3.084,14.82
	c0.468,13.529-2.949,16.51-3.281,37.309c-0.24,18.836,6.347,30.926,12.859,43.141c3.86,7.822,10.329,20.611,13.263,32.134
	c3.166,12.459,2.662,17.885,2.478,24.669c-0.13,2.817-1.343,9.693-2.579,13.963c-2.339,8.038-5.95,14.902-10.2,21.906
	c-1.712,2.82-4.124,6.793-5.866,9.347c-1.859,2.721-11.42,15.907-19.735,22.236c0.124,0.195-1.875,1.408-1.269,2.613
	c0.604,1.203,1.872,0.202,3.146-0.201c0.634-0.199,12.322-4.357,21.834-17.884c6.199-8.667,15.207-22.541,18.624-34.7
	c1.735-5.566,2.163-11.407,2.459-16.228c5.556-0.051,19.827,0.333,35.456,2.896c15.63,2.563,31.628,8.935,43.742,15.407
	c17.883,10.251,23.441,14.874,23.441,14.874l7.448-2.609c0,0-11.314-12.392-36.854-23.112c-17.427-7.314-40.997-15.54-73.246-13.829
	c-0.501-10.802-1.041-12.254-2.148-18.892c-6.531-30.947-25.952-40.155-26.422-77.47c0.223-11.031,4.286-26.386,4.351-38.85
	c0.034-6.844-2.395-11.332-4.216-17.216c0.514-2.424,2.376-5.345,4.484-7.185c1.431-1.248,2.872-1.73,4.493-2.259
	c3.998-1.305,8.993-2.535,14.647-2.715c9.421-0.296,19.956,0.095,26.946-6.061c8.369-7.485,9.781-18.611,6.261-26.093
	c-4.155-8.172-26.667,2.336-28.437,3.219c-1.761,0.879-6.793-3.514-13.397-15.841c-6.603-12.327-4.685-28.802-32.416-28.802
	c-32.551,0-63.063,23.788-72.763,31.635c-13.492,1.464-28.985,4.989-42.062,12.863c-13.546,8.157-23.96,21.306-31.74,35.886
	c-7.83,14.67-13.006,30.792-21.303,43.471c-7.964,12.204-17.08,21.825-26.928,31.416C98.563-11.271,86.943-0.595,79.909,14.503
	c-13.966,30.171-8.063,63.49,10.782,88.754c-3.025,0.886-14.009,5.729-22.572,13.935c-6.022,5.767-10.985,12.607-15.475,18.554
	c-4.488,5.949-8.504,11.005-10.113,12.862c-4.778,5.506-13.638,13.983-23.981,22.236c-12.435,9.922-26.858,19.699-36.841,25.989
	c-11.564,8.629-19.475,13.783-19.475,13.783s-6.276-3.001-9.042-4.523c-10.592-5.804-26.642-13.057-41.549-22.455
	C-117.412,165.327-149.849,145.481-175.876,145.481z"/>
<path d="M237.124,407.261c14.848,6.235,28.204,9.953,39.119,12.523c17.127,4.035,28.063,4.822,28.063,4.822s5.728,0.555,5.779-1.256
	c0.053-1.804-5.508-2.628-5.508-2.628s-8.858-1.256-19.81-3.749c-9.708-2.209-21.056-5.447-29.356-8.846
	c-3.288-1.144-21.388-8.138-38.921-18.387c-20.441-11.529-35.437-25.44-35.437-25.44s-10.369,1.89-9.376,5.515
	c0.848,3.1,8.474,6.851,10.719,8.446c4.865,3.44,12.128,7.536,16.912,10.476c-8.644,14.171-30.446,35.241-57.756,52.081l7.489,5.506
	c6.982-3.685,16.236-9.156,23.587-15.587c5.79-4.508,10.596-9.235,13.816-12.71c8.891-8.692,16.078-17.834,21.5-25.318
	C218.105,398.553,227.804,403.345,237.124,407.261z"/>
<path d="M431.009,237.617c0,0,11.662,14.652,14.552,17.549c2.888,2.893,5.264,5.482,8.205,7.922c4.18,3.466,8.089,5.68,8.089,5.68
	s-6.026,7.084-11.203,13.665c-6.029,7.51-12.792,16.411-13.013,24.665c-0.186,6.935,2.428,11.656,6.131,14.82
	c2.822,2.413,6.367,3.992,10.446,4.875c3.303,0.715,6.583,1.206,10.803,1.004c6.457,0.093,14.891-2.435,22.054-5.227
	c9.192-3.577,16.321-7.484,18.789-7.484c1.453,0,2.801,1.323,4.876,2.815c1.588,1.137,3.711,2.333,5.977,3.315
	c3.749,1.624,9.185,2.012,15.521,2.012c7.053,0,15.225-2.153,22.509-4.37c8.422-2.566,15.654-5.549,21.203-5.429
	c5.027,0.107,12.425,3.914,19.695,9.043c7.794,5.934,15.223,12.761,21.853,17.531c13.168,10.099,23.438,14.602,31.808,14.819
	c12.708,1.188,16.656-10.88,14.114-16.932c-2.542-6.051-5.491-9.22-10.65-15.121c-3.065-3.499-7.287-7.891-10.445-11.957
	c-3.948-5.061-6.836-9.594-6.836-9.594s3.487-0.821,8.79-1.007c12.111-1.138,32.881,6.347,45.74,6.501
	c18.71,0.215,23.176-9.031,23.841-17.617c0.92-11.856-18.351-21.25-32.219-25.651c-13.869-4.401-53.789-17.146-53.789-17.146
	s3.337-5.943,8.175-11.724c4.925-5.882,11.379-11.641,14.935-14.805c6.939-6.182,22.976-16.08,31.148-21.637
	c8.174-5.56,9.393-15.263,7.14-20.729c-2.247-5.462-7.337-7.005-19.329-6.603c-15.407,0.441-44.019,12.371-66.685,23.159
	c-5.14,2.442-10.614,4.631-15.472,6.682c-5.543,2.342-10.348,4.438-14.168,5.326c-2.947-3.416-10.951-5.426-20.042-5.426
	c-2.672,0-12.764,1.808-12.764,1.808l-7.938-19.092l-7.284,6.731c0,0,9.519,10.528,8.79,12.913
	c-0.317,1.038-2.234,2.403-3.824,2.794c-2.046,0.506-3.85,0.004-4.966,0.004c-0.989,0-1.813,0.529-1.912,1.17
	c-0.095,0.639,0.53,1.383,1.512,1.642c1.96,0.517,4.909,0.929,8.64,0.618c3.736-0.314,11.437-1.334,18.35-2.225
	c6.919-0.891,12.53,1.611,12.53,2.545c0,0.236-1.808,1.053-4.051,1.688c-3.648,1.032-8.387,1.859-8.387,1.859l-0.105,1.86
	c0,0,6.71,0.772,12.915-0.2c7.695-1.212,15.084-3.877,18.119-5.002c1.064-0.396,6.479-2.496,13.685-5.647
	c13.24-5.795,32.147-14.359,38.564-16.929c9.905-3.963,26.608-10.53,35.771-10.517c9.16,0.013,12.93,1.809,13.595,7.435
	c-0.511,3.038-1.354,5.786-4.553,8.506c-5.037,3.589-12.042,7.457-18.961,11.857c-9.243,5.88-18.024,13.13-23.441,18.352
	c-7.848,7.568-13.53,16.146-17.614,26.327c-2.682,6.1-1.486,10.323-1.071,11.455c1.748,4.76,6.097,8.748,7.636,8.308
	c0.745-0.366,2.257-1.624,2.014-3.081c-0.364-2.129-2.817-3.821-3.22-7.238c-0.455-2.746,0.936-4.685,0.936-4.685
	s5.094,1.538,15.004,4.354c9.914,2.817,41.419,11.484,51.979,16.544c6.061,2.901,10.998,7.058,13.065,11.052
	c1.533,2.977,1.071,6.104,0.459,7.329c-2.096,4.184-6.549,8.076-16.334,8.076c-8.336,0-17.082-2.997-25.521-5.088
	c-8.276-2.05-16.27-3.191-21.282-3.085c-2.931,0.066-6.788,0.358-10.653,1.204c-5.792,1.274-11.551,3.539-13.816,6.181
	c-0.635,0.741-0.279,1.576,0.655,1.964c1.183,0.482,3.161,0.412,3.719,0.452c0.849,0.049,2.963-0.15,5.724,2.911
	c3.368,3.974,4.989,5.664,6.131,6.886c2.322,2.493,14.719,15.776,17.077,18.692c2.363,2.911,5.639,6.481,5.479,10.497
	c-0.127,3.14-2.961,6.531-7.99,6.531c-9.591,0.099-19.237-9.144-27.778-14.117c-2.597-1.838-8.209-5.503-13.97-10.197
	c-4.931-4.017-9.421-8.446-15.271-11.856c-5.418-3.16-12.136-5.447-17.933-5.576c-9.222-0.212-14.545,2.326-20.697,4.669
	c-6.77,2.582-15.777,4.626-23.413,4.773c-10.955-0.302-13.651-3.526-15.021-4.974c4.167-3.017,9.325-3.04,14.719-3.417
	c2.492-0.174,3.803-1.425,3.668-2.258c0.049-1.256-1.603-2.699-4.223-3.069c-2.613-0.452-4.986,0.742-7.984,1.104
	c-4.912,0.983-10.668,2.699-14.317,3.972c-4.574,1.594-13.518,4.775-22.758,8.411c-8.446,3.296-17.906,5.691-23.971,5.895
	c-12.459,0.418-15.924-7.926-16.223-12.798c-0.099-10.151,11.872-23.509,17.433-30.745c5.587-6.497,12.881-16.088,12.659-21.369
	c-0.146-2.998-1.825-4.358-3.28-6.094c-1.333-1.598-2.654-3.331-3.387-3.016c-1.545,0.661-0.863,1.092-0.646,3.957
	c0.102,1.311-0.087,3.703-0.671,5.869c-0.689,2.564-1.792,4.842-1.792,4.842s-6.416-4.447-12.727-11.019
	c-6.682-6.953-14.317-18.19-14.317-18.19l-5.713,3.087L431.009,237.617z"/>
<g>
	<polygon fill="#FF0000" points="21.764,335.251 504.258,80.977 556.707,174.219 86.871,422.736 	"/>
</g>
</svg>
