<?xml version="1.0" encoding="utf-8"?>
<!-- Generator: Adobe Illustrator 15.0.2, SVG Export Plug-In . SVG Version: 6.00 Build 0)  -->
<!DOCTYPE svg PUBLIC "-//W3C//DTD SVG 1.1//EN" "http://www.w3.org/Graphics/SVG/1.1/DTD/svg11.dtd">
<svg version="1.1" id="Layer_1" xmlns="http://www.w3.org/2000/svg" xmlns:xlink="http://www.w3.org/1999/xlink" x="0px" y="0px"
	 width="741px" height="642.2px" viewBox="80 69.333 741 642.2" enable-background="new 80 69.333 741 642.2" xml:space="preserve">
<path d="M655.746,223.163c-47.53-47.074-110.857-73.011-178.306-73.011c-67.385,0-130.491,25.937-177.741,73.032
	c-47.271,47.119-73.296,110.162-73.296,177.478c0,67.428,26.024,130.753,73.274,178.311
	c47.335,47.638,110.466,73.861,177.761,73.861c67.361,0,130.687-26.224,178.307-73.861c47.643-47.622,73.861-110.95,73.861-178.311
	C729.607,333.41,703.365,270.368,655.746,223.163z M477.614,566.796c-45.658,0-88.915-19.306-119.713-53.229l278.434-147.284
	c0.608,1.592,0.98,2.901,1.285,4.449c2.269,11.455,3.426,23.364,3.426,35.36C641.046,496.206,569.251,566.796,477.614,566.796z
	 M477.176,238.759c44.219,0.152,88.195,19.349,121.701,52.9L318.7,439.294c-2.181-11.671-4.168-23.775-3.774-37.021v-0.171
	C314.926,312.031,387.697,238.759,477.176,238.759z"/>
<path fill="#FF0000" d="M477.448,155.604c-136.255,0-245.596,108.81-245.596,245.063c0,136.259,109.339,246.712,245.596,246.712
	c136.251,0,246.71-110.453,246.71-246.712C724.158,264.412,613.699,155.604,477.448,155.604z M477.621,572.251
	c-52.642,0-99.371-24.403-130.123-62.427c-14.668-18.135-26.446-38.932-32.752-62.092c-2.681-14.315-5.771-28.95-5.27-45.631
	c0-93.368,74.325-168.784,167.692-168.784c53.533,0.181,99.527,26.175,130.701,59.806c15.037,18.458,24.728,41.09,31.176,65.714
	c2.184,4.726,3.229,7.319,3.926,10.83c2.315,11.66,3.535,23.833,3.535,36.424C646.504,499.464,570.986,572.251,477.621,572.251z"/>
<path fill="#FFFFFF" d="M482.167,569.526c-60.555,0.965-108.285-33.188-106.088-34.656c6.616-4.412,18.305-12.386,23.375-17.879
	c3.264-3.517,8.046-7.738,10.726-11.451c1.679-2.328,5.729-7.323,6.907-8.725c-1.025-2.536-21.965-16.166-21.965-16.166
	c-38.043-26.222-42.161-56.671-45.568-63.278l-2.567-7.497c-2.03,0.268-16.15,2.752-18.427,3.542
	c-5.854,2.046-11.318,6.311-20.723,11.86c-20.723,13.088-41.173,14.316-41.173,14.316s5.542,16.055,5.52,17.586
	c-0.014,1.83,0.02,6.992-8.488,7.042c-8.869,0-16.669-7.56-22.392-15.219c-4.124-5.517-8.57-10.821-14.315-14.043
	c-4.242,1.952-18.15-3.575-27.266-8.726c-5.927-3.35-7.083-4.611-8.318-5.453c-2.592-1.77-10.208,0.639-11.702,1.009
	c-6.68,1.648-11.088,2.728-14.698,2.728c-3.77,0-6.604-3.018-6.573-4.485c0.062-2.565,0.731-6.795,5.688-11.396
	c2.416-2.243,6.307-4.137,7.924-6.123c0.045-0.117,3.311-6.561,3.378-6.712c-0.014,0,0.478-1.9-0.243-2.425
	c-2.218-1.612-10.64-1.05-20.981-1.05c-1.458,0-2.863,0.019-4.172,0.034c-1.135,0.013-2.195,0.025-3.138,0.025
	c-5.358,0-4.449-2.66-4.838-4.188c-0.982-3.813,2.515-8.883,5.453-10.499c1.475-0.83,5.687-3.469,10.906-6.545
	c5.15-3.035,12.907-7.251,14.317-8.044c0.499-1.473-5.072-7.127-9.897-10.05c-1.783-1.082-4.346-2.195-7.051-3.371
	c-6.864-2.989-12.432-5.854-12.228-10.3c0.177-3.858,2.25-6,11.271-6l5.953,0.369c16.333,0.246,56.693,26.511,58.807,27.898
	c7.118,4.685,30.688,16.519,30.688,16.519s5.781-3.61,16.801-11.52c4.052-2.906,13.492-8.372,16.359-10.771
	c6.04-5.019,23.279-19.084,29.449-28.223c7.634-13.905,22.155-21.643,28.355-24.541c-0.24-0.574-14.968-26.224-13.088-40.764
	c2.556-19.859,11.694-30.788,24.132-43.082c3.572-3.526,8.97-9.846,12.407-13.634c6.841-7.57,12.583-18.521,16.769-27.675
	c5.273-11.52,10.607-22,21.134-30.676c9.098-7.376,15.153-9.403,24.269-10.633c2.122-0.267,12.051-1.633,16.086-2.317
	c-0.692-0.632,2.047-6.271,7.634-8.726c16.906-9.271,30.111-10.771,30.541-10.771c12.099,0,15.843,3.248,18.543,9.816
	c1.387,3.39,3.466,11.079,6.542,14.724c3.99,4.737,5.797,6.748,8.453,6.546c1.773-0.137,4.174-2.861,4.771-3
	c4.088-0.954,11.605-2.895,12.541-1.364c1.939,3.18-1.746,14.643-7.77,17.316c-4.453,1.983-13.865,1.636-20.725,1.636
	c0,0-9.654,3.784-11.268,6.271c-0.957,1.465,2.714,8.096,2.998,16.042c0.154,4.627-1.182,10.354-1.683,13.611
	c-0.526,3.405-1.257,4.79-1.366,11.929c-0.191,11.958,11.348,35.688,15.951,45.536c5.104,10.888,4.025,21.677,4.025,21.677
	s33.117,0.493,49.104,9.018c13.097,7.006,20.021,9.965,25.679,16.614c5.652,6.647,18.008,41.456,18.008,41.456l28.493,17.174
	c1.434,0.745,7.081,6.993,8.533,12.262c5.657-0.293,10.431-3.288,14.178-1.628c5.144,2.279,9.262,3.962,9.818,3.813
	c4.27-1.156,15.372-5.067,25.449-9.998c6.503-3.181,14.275-6.583,16.904-7.635c7.217-2.886,20.984-6.905,27.549-6.905
	c0.292,0,8.263,2.927,8.263,8.541c0,4.411-5.886,6.606-17.267,14.362c-5.242,3.568-12.354,8.108-15.454,11.087
	c-8.703,8.392-10.731,11.819-10.263,16.228c0.273,2.447,6.438,3.285,10.629,4.859c2.925,1.096,8.289,2.462,13.449,3.82
	c7.439,1.95,17.32,5.025,21.633,7.086c2.438,1.165,12.737,8.018,12.176,13.995c-0.627,7.213-6.112,9.091-12.541,9.091
	c-6.388,0-14.599-3.019-19.814-4.363c-3.978-1.026-11.816-0.911-11.816-0.911c-5.219,0.104-11.082-0.834-9.674,3.34
	c0.174,0.515,0,0,0.276,0.457c2.942,4.914,11.305,12.516,14.874,15.77c0.627,0.572,1.135,1.031,1.479,1.354
	c1.828,1.72,4.908,8.478,3.59,11.805c-0.545,1.388-4.762,4.365-9.271,4.365c-6.413,0-21.871-11.882-24.361-13.815
	c-7.188-5.617-15.923-14.326-25.266-14.541c-0.293-0.009-28.357,7.271-28.357,7.271c-0.459,1.49-8.168,27.527-24.362,51.08
	C591.782,532.624,542.721,568.555,482.167,569.526z"/>
<path d="M635.336,449.002c-18.65,68.629-81.252,117.794-157.722,117.794c-45.658,0-88.915-19.306-119.713-53.229l280.484-148.338
	l0.242-7.921c-6.445-24.029-16.037-46.111-30.76-64.186c-26.795-28.907-64.539-52.171-108.609-58.252c-0.007,0-0.014,0-0.021-0.003
	l2.777,5.966c35.538,5.802,69.652,23.581,96.862,50.827L318.7,439.294c-1.146-6.14-2.241-12.401-2.962-18.884
	c0-0.008-0.002-0.02-0.002-0.029l-5.118,3.172c0.002,0.02,0.002,0.031,0.004,0.048c1.059,8.327,2.652,16.274,4.123,24.128
	c6.306,23.161,18.083,43.957,32.751,62.092c30.754,38.022,77.484,62.427,130.124,62.427c78.466,0,144.307-51.417,163.33-123.25
	h-5.613V449.002z"/>
<path d="M426.178,282.489c0.012,6.319-3.029,14.389-8.546,14.497c-3.953,0.004-8.577-6.176-8.271-14.156
	c0.31-7.977,3.772-14.157,8.453-14.157C422.951,268.672,426.16,275.441,426.178,282.489z"/>
<path d="M413.872,319.038c-3.035-0.102-5.592-3.006-7.636-3.512c-0.34,0.271,5.452,8.079,12.375,8.079
	c7.906,0,11.281-8.113,9.748-10.056c-0.835-1.059-1.246,1.676-3.478,3.477c-1.602,1.291-4.191,1.977-7.408,2.146
	C416.052,319.262,415.27,319.14,413.872,319.038z"/>
<path d="M415.576,238.53c-0.409,0.446,3.61,8.658,9.61,8.658c6.17,0,9.341-7.498,7.668-9.749c-1.905-1.53-1.114,4.288-8.247,4.875
	C419.224,242.758,416.189,237.917,415.576,238.53z"/>
<path d="M419.03,187.336c-0.815-2.239-3.001-3.821-5.167-3.785c-4.001,0.07-8.199,3.675-8.157,10.088
	c0,4.023,1.899,8.697,4.801,8.986c4.888,0.486,5.896-1.755,6.045-4.929c0.071-1.485-0.49-2.84-0.994-4.057
	c-0.564-1.353-1.505-3.259-1.285-4c0.159-0.535,0.895-0.407,1.865-0.196c1.43,0.312,3.237,1.933,3.5,1.832
	C419.894,191.179,419.848,189.575,419.03,187.336z"/>
<path d="M456.783,194.131c-0.421-1.106-1.507-4.594-4.431-4.772c-3.373-0.206-7.463,3.305-8.349,9.748
	c-0.89,6.461,0.445,7.941,4.125,8.658c2.963,0.578,4.786-0.269,4.806-2.897c0.022-2.628,0.153-6.07,0.479-6.611
	c0.322-0.544,1.113-0.777,1.638-0.649c0.521,0.129,0.985,1.106,2.043,1.037C458.153,198.577,457.208,195.235,456.783,194.131z"/>
<path d="M405.282,176.395c4.738,1.395,2.965-5.114,7.329-8.692c1.975-2.113,4.841-3.306,5.216-4.771
	c0.373-1.466-5.319,1.261-7.362,3.237C407.738,168.59,401.977,175.68,405.282,176.395z"/>
<path d="M451.981,166.135c-1.503,1.33-0.315,2.472,1.055,3.271c1.233,0.375,3.59,1.899,5.693,4.262
	c3.197,3.348,4.805,6.443,5.589,6.101c0.631-0.238-1.228-4.328-2.931-7.667C459.578,168.521,455.08,163.649,451.981,166.135z"/>
<path d="M157.388,331.069c-8.81,0-15.614,1.81-15.883,7.499c-0.271,6.271,9.31,10.901,16.543,13.906
	c2.713,1.126,10.52,6.641,12.089,9.179c-5.889,3.677-24.884,14.883-28.361,18.087c-3.474,3.206-3.226,7.047-1.976,9.952
	c1.249,2.908,3.966,5.569,10.761,5.569c0.957,0,5.868-0.041,7.326-0.041c12.401,0,13.04,0.224,14.11,0.622
	c-0.012,3.155-0.64,4.947-2,6.322c-1.208,1.221-3.592,2.434-4.976,3.816c-5.732,5.724-9.051,9.817-9.135,13.362
	c-0.056,2.441,2.074,4.688,3.546,5.795c1.471,1.103,4.885,1.93,9.162,1.93c4.989,0,11.461-2.549,21.617-4.933
	c0.979,0.397,3.533,1.56,9.566,4.979c10.903,6.167,19.017,11.644,26.022,11.644c0.663,0,2.365-0.491,2.912-0.942
	c7.509,6.749,12.146,14.644,14.133,16.632c1.897,2.42,6.521,6.357,8.816,8.09c5.895,5.138,11.516,4.283,12.862,4.135
	c1.344-0.146,5.441-0.55,7.635-2.318c1.734-1.395,2.491-3.871,2.59-5.999c0.182-3.769-2.63-8.577-4.273-12.497
	c-0.774-1.844-1.134-3.68-1.134-3.68s5.439-0.769,10.815-2.272c5.377-1.501,16.858-4.385,30.674-13.999
	c18.064-12.562,28.705-13.297,33.753-13.824c1.065,2.965,5.211,14.48,5.794,15.648c0.671,1.345,5.188-3.773,5.188-3.773
	l-5.787-12.961c2.671-0.285,4.647-0.352,7.374-0.182c2.692-0.681,2.891-2.17,2.216-2.556c-1.339-0.762-8.252-1.016-15.909-0.145
	c-4.325,0.49-9.156,1.369-12.688,2.634c-5.688,1.983-11.83,5.199-21.679,11.009c-5.798,3.42-12.072,6.89-18.121,9.375
	c-10.6,4.355-20.008,6.632-21.858,6.632c-2.909,0,1.727-5.041,1.727-5.041s0.499-2.362,0.134-3.271
	c-0.304-0.249-0.756-0.505-1.316-0.275c-0.981,0.406-2.258,1.769-3.375,3.421c-1.118,1.65-2.348,3.638-2.215,6.715
	c0.135,3.751,2.33,7.776,3.955,11.659c1.202,2.873,1.989,5.521,1.974,6.65c-0.016,1.314,0.031,2.193-1.396,3.095
	c-1.023,0.647-2.912,1.529-5.623,1.545c-2.725,0.017-5.426-0.663-7.976-2.601c-4.774-3.634-9.191-10.308-13.429-15.441
	c-5.102-6.178-10.527-10.346-11.078-10.805c-1.252-1.045-4.354-3.708-6.682-5.114c-0.756-0.458-1.522-0.894-2.113-1.024
	c-0.601-0.133-1.018,0.043-1.09,0.103c-0.444,0.376-0.134,0.937,0.035,1.261c0.373,0.717,1.334,1.867,1.566,2.557
	c0.447,1.316-0.066,1.914-0.716,1.807c-0.644-0.109-4.613-1.203-9.611-3.479c-2.681-1.215-5.487-2.895-8.624-4.668
	c-2.766-1.71-5.109-3.402-6.68-4.6c-2.53-1.938-3.742-3.049-5.044-3.956c-2.113-1.468-5.182-2.998-7.397-3.237
	c-1.002-0.111-1.379,0.249-1.773,0.61c-0.473,0.44-0.712,1.046-0.134,1.568c0.364,0.38,1.668,1.025,2.795,1.84
	c0.957,0.691,1.689,1.473,1.647,1.761c-0.114,0.794-2.404,0.669-5.466,1.34c-4.477,0.983-10.479,2.353-12.951,2.353
	c-5.677,0-7.942-1.225-7.873-3.683c0.044-1.922,1.976-4.67,6-8.758c0.914-0.983,2.116-1.943,3.408-2.693
	c2.146-0.886,3.741-1.888,4.364-3.308c1.052-1.424,0.781-3.316,1.294-4.568c0.228-0.401,0.835-1.065,1.944-1.361
	c3.373-0.682,7.635,5.111,10.022,5.896c1.512,0.56,1.873-1.057,0.408-3.238c-1.265-2.166-3.104-5.385-7.09-7.739
	c-2.09-1.277-4.512-2.667-8.182-3.204c-2.849-0.415-6.032-0.545-10.088-0.101c-2.733,0-9.922,0.819-11.963,0.819
	c-5.25,0.167-7.191-2.558-6.852-5.557c0.783-2.385,3.937-4.399,5.318-5.386c2.862-2.046,8.9-5.57,15.029-9.134
	c3.834-2.231,6.237-4.297,9.237-4.193c2.285-0.035,3.423,2.65,5.182,4.873c1.772,2.419,3.6,4.422,3.886,4.907l1.466-0.134
	c-0.648-1.364-2.25-7.088-5.658-12.203c-3.876-5.157-9.922-9.48-10.668-10.088c-1.5-1.229-5.556-4.125-10.19-6.17
	c-6.58-3.101-11.551-6.039-11.418-8.826c0.093-1.963,3.874-3.385,10.021-3.375c6.147,0.013,15.78,2.103,25.052,6.827
	c12.361,6.817,31.002,18.09,33.2,19.274c3.679,1.983,9.727,5.502,14.609,8.22c4.901,2.726,10.413,6.111,19.199,10.158
	c4.964,2.287,16.053,4.19,16.223,2.248c0.103-0.953-1.499-1.124-3.545-2.248c-2.352-1.094-5.181-2.453-5.181-2.453
	s25.266-16.524,33.333-23.248c8.816-6.361,20.313-15.943,26.359-24.902c0.968-1.781,2.747-4.073,3.864-5.637
	c6.998-10.499,18.059-16.159,21.813-17.224c3.099,4.322,7.955,10.182,10.726,12.951c3.408,2.954,4.26,1.503,4.499,1.272
	c-7.355-9.286-16.24-21.855-21.269-35.538c-3.453-8.635-4.653-17.179-3.727-24.359c1.523-11.807,6.239-20.319,13.087-28.446
	c7.529-8.937,17.478-17.304,24.904-26.632c4.497-5.579,7.678-11.306,10.637-17.587c1.357-2.887,2.713-6.281,4.046-9.135
	c5.271-11.288,11.315-21.905,21.222-30.539c7.635-5.612,19.188-9.329,29.958-10.725c1.558-0.194,7.14-0.637,12.34-0.477
	c4.74,0.145,9.124,0.797,9.576,0.785c0.95-0.03,1.499-1.262-0.952-2.456c-1.119-0.168-3.17-0.647-5.183-1.125
	c-2.726-0.205-4.669-1.294-4.736-2.248c-0.073-1.178,5.441-4.376,12.304-7.703c7.544-3.661,16.809-7.422,24.167-7.602
	c10.354-0.319,13.668,3.988,16.055,10.02c2.001,4.687,3.519,10.068,7.804,15.152c4.4,5.558,10.643,8.688,13.462,9.732
	c0.626,0.111,1.164-0.112,1.432-0.31c0.466-0.347,0.51-0.729,0.312-1.144c-0.613-1.253-3.502-2.781-3.879-4.354
	c-0.123-0.517,8.861-3.687,10.35-3.772c1.194-0.069,2.896,1.159,2.924,3.271c0.016,1.771-0.775,4.091-2.205,6.34
	c-1.108,1.588-2.693,3.365-4.887,4.341c-2.439,1.276-5.35,1.329-9.361,1.316c-1.746-0.004-4.355-0.019-6.104-0.034
	c-4.053-0.034-7.291,0.476-8.182,0.813c-3.574,0.755-7.643,4.948-8.928,6.039c0,0-2.008-2.537-4.326-4.978
	c-2.453-2.579-5.246-4.982-5.727-5.011c-1.015-0.058-1.177,1.356-0.91,1.944c0.269,0.587,2.031,4.227,3.136,5.499
	c0.875,1.016,2.405,3.244,3.223,4.558c0.826,1.31,3.116,5.4,4.094,7.976c1.17,3.086,1.958,6.165,2.092,10.054
	c0.318,9.179-2,11.202-2.226,25.312c-0.163,12.779,4.306,20.981,8.724,29.27c2.619,5.306,7.008,13.983,8.998,21.801
	c2.148,8.452,1.807,12.134,1.682,16.736c-0.088,1.911-0.911,6.576-1.75,9.473c-1.587,5.454-4.036,10.11-6.92,14.862
	c-1.162,1.914-2.797,4.609-3.979,6.342c-1.262,1.846-7.748,10.792-13.39,15.086c0.084,0.132-1.272,0.955-0.861,1.772
	c0.41,0.816,1.27,0.137,2.134-0.136c0.43-0.135,8.36-2.956,14.813-12.133c4.206-5.88,10.317-15.293,12.636-23.542
	c1.177-3.776,1.467-7.739,1.668-11.01c3.77-0.035,13.451,0.226,24.055,1.965c10.604,1.739,21.458,6.062,29.677,10.453
	c12.133,6.955,15.903,10.091,15.903,10.091l5.053-1.77c0,0-7.676-8.407-25.003-15.68c-11.823-4.962-27.814-10.543-49.693-9.382
	c-0.34-7.33-0.706-8.314-1.458-12.818c-4.43-20.996-17.606-27.243-17.926-52.559c0.151-7.484,2.908-17.901,2.953-26.357
	c0.021-4.644-1.626-7.688-2.861-11.68c0.35-1.645,1.613-3.626,3.043-4.875c0.971-0.847,1.948-1.173,3.048-1.532
	c2.712-0.886,6.102-1.72,9.937-1.842c6.392-0.201,13.539,0.064,18.281-4.112c5.678-5.078,6.637-12.626,4.248-17.703
	c-2.818-5.544-18.092,1.585-19.293,2.184c-1.194,0.597-4.608-2.384-9.089-10.747c-4.479-8.363-3.179-19.541-21.992-19.541
	c-22.084,0-42.785,16.139-49.366,21.462c-9.154,0.993-19.665,3.385-28.537,8.728c-9.19,5.534-16.255,14.455-21.534,24.346
	c-5.312,9.953-8.824,20.891-14.453,29.493c-5.403,8.28-11.588,14.807-18.269,21.314c-7.431,7.238-15.314,14.481-20.086,24.724
	c-9.476,20.469-5.47,43.075,7.315,60.215c-2.052,0.601-9.504,3.886-15.314,9.454c-4.085,3.913-7.453,8.553-10.499,12.588
	c-3.045,4.036-5.77,7.466-6.861,8.726c-3.242,3.735-9.253,9.486-16.27,15.086c-8.436,6.731-18.222,13.365-24.995,17.632
	c-7.846,5.854-13.213,9.352-13.213,9.352s-4.258-2.036-6.134-3.069c-7.186-3.938-18.075-8.859-28.189-15.235
	C197.052,344.534,175.045,331.069,157.388,331.069z"/>
<path d="M437.585,508.672c10.074,4.23,19.135,6.753,26.541,8.496c11.619,2.738,19.039,3.271,19.039,3.271s3.886,0.377,3.921-0.852
	c0.035-1.225-3.737-1.783-3.737-1.783s-6.01-0.852-13.44-2.543c-6.586-1.499-14.286-3.695-19.917-6.002
	c-2.23-0.775-14.511-5.521-26.405-12.475c-13.869-7.822-24.042-17.26-24.042-17.26s-7.035,1.282-6.361,3.742
	c0.575,2.104,5.749,4.647,7.272,5.73c3.3,2.333,8.228,5.112,11.474,7.107c-5.864,9.613-20.656,23.909-39.185,35.334l5.081,3.735
	c4.737-2.501,11.016-6.212,16.002-10.575c3.929-3.059,7.189-6.266,9.374-8.623c6.032-5.896,10.908-12.1,14.586-17.178
	C424.682,502.764,431.262,506.016,437.585,508.672z"/>
<path d="M569.126,393.579c0,0,7.912,9.94,9.872,11.906c1.96,1.962,3.572,3.719,5.566,5.375c2.836,2.352,5.488,3.854,5.488,3.854
	s-4.088,4.806-7.6,9.271c-4.091,5.095-8.68,11.134-8.829,16.733c-0.126,4.705,1.647,7.908,4.159,10.055
	c1.915,1.637,4.32,2.709,7.088,3.308c2.24,0.485,4.466,0.818,7.329,0.681c4.38,0.063,10.103-1.651,14.962-3.545
	c6.236-2.428,11.072-5.078,12.748-5.078c0.985,0,1.9,0.897,3.308,1.91c1.077,0.771,2.518,1.582,4.055,2.248
	c2.544,1.103,6.231,1.365,10.53,1.365c4.785,0,10.329-1.46,15.271-2.965c5.713-1.74,10.621-3.765,14.385-3.683
	c3.41,0.072,8.43,2.655,13.361,6.136c5.289,4.025,10.329,8.656,14.827,11.893c8.934,6.852,15.901,9.907,21.579,10.055
	c8.622,0.806,11.301-7.382,9.576-11.488c-1.725-4.104-3.726-6.255-7.226-10.258c-2.079-2.374-4.944-5.354-7.087-8.113
	c-2.678-3.434-4.637-6.508-4.637-6.508s2.365-0.558,5.963-0.684c8.217-0.771,22.309,4.306,31.031,4.41
	c12.694,0.146,15.725-6.127,16.176-11.951c0.624-8.045-12.45-14.418-21.859-17.403c-9.409-2.986-36.492-11.633-36.492-11.633
	s2.264-4.032,5.547-7.954c3.341-3.991,7.719-7.898,10.132-10.044c4.707-4.195,15.587-10.91,21.132-14.68
	c5.546-3.772,6.373-10.355,4.845-14.063c-1.524-3.706-4.978-4.753-13.114-4.48c-10.453,0.3-29.863,8.393-45.242,15.712
	c-3.486,1.657-7.201,3.142-10.497,4.533c-3.761,1.589-7.021,3.011-9.612,3.614c-1.999-2.317-7.43-3.682-13.598-3.682
	c-1.813,0-8.658,1.227-8.658,1.227l-5.387-12.953l-4.941,4.567c0,0,6.459,7.143,5.964,8.761c-0.216,0.704-1.516,1.629-2.595,1.895
	c-1.388,0.343-2.612,0.003-3.369,0.003c-0.671,0-1.23,0.359-1.297,0.793c-0.064,0.434,0.359,0.938,1.025,1.114
	c1.33,0.351,3.331,0.63,5.861,0.419c2.535-0.213,7.76-0.905,12.45-1.509c4.694-0.604,8.501,1.093,8.501,1.727
	c0,0.16-1.227,0.714-2.748,1.146c-2.476,0.7-5.69,1.261-5.69,1.261l-0.071,1.262c0,0,4.553,0.524,8.762-0.135
	c5.221-0.823,10.234-2.631,12.293-3.394c0.723-0.269,4.396-1.693,9.285-3.831c8.982-3.932,21.809-9.742,26.162-11.486
	c6.721-2.688,18.053-7.144,24.27-7.135c6.215,0.008,8.772,1.228,9.224,5.044c-0.347,2.061-0.919,3.926-3.089,5.771
	c-3.418,2.435-8.17,5.06-12.864,8.044c-6.271,3.99-12.229,8.909-15.903,12.451c-5.324,5.135-9.18,10.954-11.951,17.861
	c-1.818,4.139-1.007,7.004-0.726,7.771c1.187,3.229,4.136,5.935,5.181,5.637c0.506-0.248,1.531-1.102,1.366-2.09
	c-0.247-1.444-1.911-2.592-2.185-4.911c-0.309-1.863,0.635-3.179,0.635-3.179s3.457,1.043,10.18,2.955
	c6.727,1.911,28.101,7.791,35.265,11.224c4.112,1.967,7.462,4.788,8.864,7.499c1.041,2.02,0.727,4.141,0.312,4.972
	c-1.423,2.839-4.442,5.479-11.081,5.479c-5.656,0-11.59-2.033-17.315-3.452c-5.614-1.392-11.038-2.165-14.438-2.093
	c-1.988,0.045-4.605,0.242-7.227,0.816c-3.931,0.864-7.838,2.401-9.375,4.193c-0.43,0.503-0.188,1.069,0.445,1.332
	c0.803,0.328,2.145,0.28,2.522,0.308c0.577,0.032,2.011-0.103,3.884,1.975c2.285,2.696,3.385,3.843,4.16,4.672
	c1.574,1.691,9.985,10.703,11.585,12.682c1.603,1.976,3.825,4.396,3.718,7.121c-0.086,2.131-2.01,4.431-5.422,4.431
	c-6.506,0.067-13.051-6.203-18.845-9.576c-1.763-1.248-5.569-3.734-9.479-6.92c-3.345-2.725-6.392-5.729-10.36-8.043
	c-3.676-2.144-8.233-3.695-12.167-3.783c-6.256-0.144-9.868,1.578-14.041,3.168c-4.594,1.752-10.704,3.139-15.885,3.238
	c-7.433-0.205-9.262-2.393-10.19-3.375c2.826-2.047,6.326-2.063,9.986-2.318c1.689-0.117,2.58-0.966,2.488-1.531
	c0.033-0.852-1.088-1.831-2.865-2.082c-1.772-0.307-3.383,0.504-5.416,0.748c-3.334,0.668-7.238,1.832-9.715,2.695
	c-3.104,1.082-9.17,3.24-15.439,5.707c-5.73,2.235-12.148,3.861-16.263,4c-8.452,0.283-10.804-5.379-11.007-8.684
	c-0.066-6.887,8.055-15.949,11.828-20.858c3.79-4.408,8.738-10.915,8.588-14.498c-0.1-2.034-1.238-2.957-2.226-4.134
	c-0.903-1.084-1.8-2.26-2.298-2.046c-1.049,0.448-0.586,0.741-0.438,2.685c0.068,0.889-0.06,2.512-0.455,3.981
	c-0.469,1.739-1.217,3.285-1.217,3.285s-4.353-3.017-8.635-7.476c-4.533-4.717-9.713-12.341-9.713-12.341l-3.875,2.094
	L569.126,393.579z"/>
<g>
	<polygon fill="#FF0000" points="291.476,459.818 618.82,287.307 654.405,350.566 335.647,519.172 	"/>
</g>
</svg>
